<svg id="visual" viewBox="0 0 900 600" width="900" height="600" xmlns="http://www.w3.org/2000/svg" xmlns:xlink="http://www.w3.org/1999/xlink" version="1.1"><path d="M0 49L25 43C50 37 100 25 150 30C200 35 250 57 300 71C350 85 400 91 450 90C500 89 550 81 600 69C650 57 700 41 750 34C800 27 850 29 875 30L900 31L900 0L875 0C850 0 800 0 750 0C700 0 650 0 600 0C550 0 500 0 450 0C400 0 350 0 300 0C250 0 200 0 150 0C100 0 50 0 25 0L0 0Z" fill="#cdae96"></path><path d="M0 73L25 80C50 87 100 101 150 112C200 123 250 131 300 136C350 141 400 143 450 150C500 157 550 169 600 156C650 143 700 105 750 96C800 87 850 107 875 117L900 127L900 29L875 28C850 27 800 25 750 32C700 39 650 55 600 67C550 79 500 87 450 88C400 89 350 83 300 69C250 55 200 33 150 28C100 23 50 35 25 41L0 47Z" fill="#ba948e"></path><path d="M0 97L25 112C50 127 100 157 150 168C200 179 250 171 300 202C350 233 400 303 450 316C500 329 550 285 600 273C650 261 700 281 750 302C800 323 850 345 875 356L900 367L900 125L875 115C850 105 800 85 750 94C700 103 650 141 600 154C550 167 500 155 450 148C400 141 350 139 300 134C250 129 200 121 150 110C100 99 50 85 25 78L0 71Z" fill="#9e7e87"></path><path d="M0 271L25 290C50 309 100 347 150 337C200 327 250 269 300 276C350 283 400 355 450 385C500 415 550 403 600 403C650 403 700 415 750 426C800 437 850 447 875 452L900 457L900 365L875 354C850 343 800 321 750 300C700 279 650 259 600 271C550 283 500 327 450 314C400 301 350 231 300 200C250 169 200 177 150 166C100 155 50 125 25 110L0 95Z" fill="#7d6b7c"></path><path d="M0 343L25 361C50 379 100 415 150 409C200 403 250 355 300 367C350 379 400 451 450 476C500 501 550 479 600 477C650 475 700 493 750 495C800 497 850 483 875 476L900 469L900 455L875 450C850 445 800 435 750 424C700 413 650 401 600 401C550 401 500 413 450 383C400 353 350 281 300 274C250 267 200 325 150 335C100 345 50 307 25 288L0 269Z" fill="#5a5a6a"></path><path d="M0 601L25 601C50 601 100 601 150 601C200 601 250 601 300 601C350 601 400 601 450 601C500 601 550 601 600 601C650 601 700 601 750 601C800 601 850 601 875 601L900 601L900 467L875 474C850 481 800 495 750 493C700 491 650 473 600 475C550 477 500 499 450 474C400 449 350 377 300 365C250 353 200 401 150 407C100 413 50 377 25 359L0 341Z" fill="#3d4853"></path></svg>